<?xml version="1.0" encoding="utf-8"?>
<!-- Generator: Adobe Illustrator 24.1.0, SVG Export Plug-In . SVG Version: 6.00 Build 0)  -->
<svg version="1.1" id="Layer_1" xmlns="http://www.w3.org/2000/svg" xmlns:xlink="http://www.w3.org/1999/xlink" x="0px" y="0px"
	 viewBox="0 0 940 940" style="enable-background:new 0 0 940 940;" xml:space="preserve">
<g>
	<g>
		<g>
			<path d="M843.8,571.7c12.1-131.3-57.5-271.9-177-348.3c-148.9-95.1-321.5-23.3-436.3,81.1C88.3,433.9,96.5,624.5,216.9,757
				c-24,9.7-40.8,44.6-48.2,62.1c-9.2,22-15.5,65.4,12.6,79.4c24.6,12.2,48.4-16.1,60.4-31.2c9.8-12.2,33.6-41.5,29.7-60.3l0.1,0.1
				c53.3,40.7,123.8,66.2,193.5,61.6c3.5,2.3,8.2,3.2,13.7,1.8c55.9-14.4,117-14.9,170.5-36.5c13.9-5.6,27-12.1,39.5-19.2
				c-0.3,14.1,12.6,33.7,18.1,42.2c17,26.6,50.8,62.4,89.2,52.2c41.7-11.1,34.2-56.9,20.5-84c-8.7-17.2-29.7-56.3-54.7-67.2
				c1.3-1.4,2.7-2.7,4.1-4.1C814.1,702.7,837.8,637.8,843.8,571.7z M750.5,721.3c-26.2,33.9-63.2,60.3-103.4,79.7
				c-49.5,23.9-110.1,24.8-164.4,36.9c-108.5,1.4-194.2-41.8-258.5-124c-66.2-84.7-89.2-195.1-43-291.5
				c66.1-137.7,265.4-261.7,430.9-191.6C737.7,284,805.5,418.5,810,537.8C812.5,603.4,792.1,667.5,750.5,721.3z"/>
			<path d="M918,149.1c-5.5-11.3-12.8-21.2-21.3-29.9c1-0.9,2.2-1.6,3-2.6c6.4-7.1,10.2-16.2,6.7-25.3c-3.3-8.6-10.3-14.1-19.5-17.4
				c-8.5-3.1-17.3-1.6-25.4,1.6c-5.8,2.3-10.3,6.4-13.6,11.3c-25.6-11.1-54.5-17.2-82.4-19.4C710,63.1,630,74.3,600.8,122.8
				c-1.6,2.6-2,5.3-1.5,7.7c-0.7,4.3,1.6,9.1,7.3,10.8C724,176.7,794.1,249.1,854.7,343.7c3.6,5.7,12.3,9.5,19.4,7.1
				c0.9-0.3,1.7-0.5,2.6-0.8c0.5-0.2,0.9-0.5,1.4-0.6c21.8,5.3,40.9-38.2,45.8-52.5C941.5,245.9,941.9,198.3,918,149.1z"/>
			<path d="M387.8,140.6c1.3-2.7,1.9-5.9,1.2-9.5C367.1,21.4,205.7,24.6,113.9,57.8c-13.7-19.9-39.1-34.5-65.7-26.6
				C42.4,32.9,36.8,38,37.4,44C39.1,61.1,47.9,75.6,62.3,86C27.9,113.9,10,153.7,4.4,197.2C-0.5,235.5,12.6,343,67,353.8
				c4.8,4.5,12.6,6,18.4-0.1c42.5-44.8,81.7-85.5,136.2-119.4c49.6-30.8,105-52.4,160.2-73.5C391.7,156.9,392.3,147.6,387.8,140.6z"
				/>
		</g>
	</g>
</g>
</svg>
